<svg data-logo="logo" xmlns="http://www.w3.org/2000/svg" viewBox="0 0 211 46">
        <g style="opacity: 1;" id="logogram" transform="translate(0, 5.5) rotate(0)"><path d="M16.2628 0.600006H37.3443L21.8451 23.5729H0.76355L16.2628 0.600006Z" fill="#2AD8CE"></path><path d="M17.1859 25.702L11.1827 34.6H33.2643L48.7635 11.6271H32.4659L22.9699 25.702H17.1859Z" fill="#142946"></path></g>
        <g style="opacity: 1;" id="logotype" transform="translate(55, 1)"><path fill="#ebedf0" d="M16.08 35L8.73 35L8.73 9.27L15.28 9.27Q18.43 9.27 20.26 9.90Q22.10 10.53 22.99 11.51Q23.89 12.49 24.17 13.58Q24.45 14.66 24.45 15.61L24.45 15.61Q24.45 16.63 24.15 17.73Q23.85 18.83 23.15 19.76Q22.45 20.68 21.23 21.24L21.23 21.24Q23.85 21.91 24.95 23.54Q26.06 25.16 26.06 27.16L26.06 27.16Q26.06 28.52 25.74 29.93Q25.43 31.32 24.43 32.46Q23.43 33.60 21.44 34.30Q19.44 35 16.08 35L16.08 35ZM12.58 12.60L12.58 20.20L15.91 20.20Q17.73 20.20 18.71 19.58Q19.69 18.97 20.09 17.99Q20.49 17.01 20.49 15.92L20.49 15.92Q20.49 15.01 20.09 14.26Q19.69 13.51 18.65 13.05Q17.62 12.60 15.73 12.60L15.73 12.60L12.58 12.60ZM12.58 23.31L12.58 31.71L16.61 31.71Q18.39 31.71 19.46 31.29Q20.53 30.87 21.09 30.20Q21.65 29.54 21.82 28.75Q22.00 27.96 22.00 27.20L22.00 27.20Q22.00 25.38 20.77 24.34Q19.55 23.31 16.92 23.31L16.92 23.31L12.58 23.31ZM32.39 35L28.61 35L28.61 18.93L32.39 18.93L32.39 22.09Q32.95 20.51 34.19 19.51Q35.44 18.51 37.08 18.51L37.08 18.51Q38.20 18.51 38.62 18.72L38.62 18.72L38.10 22.54Q37.78 22.33 36.73 22.33L36.73 22.33Q35.86 22.33 34.84 22.71Q33.83 23.10 33.11 24.06Q32.39 25.02 32.39 26.74L32.39 26.74L32.39 35ZM43.80 35L39.88 35L39.88 18.93L43.80 18.93L43.80 35ZM41.84 15.92L41.84 15.92Q40.76 15.92 40.04 15.19Q39.32 14.45 39.32 13.37L39.32 13.37Q39.32 12.39 40.04 11.69Q40.76 10.99 41.84 10.99L41.84 10.99Q42.93 10.99 43.64 11.69Q44.36 12.39 44.36 13.37L44.36 13.37Q44.36 14.45 43.64 15.19Q42.93 15.92 41.84 15.92ZM54.48 35.35L54.48 35.35Q52.34 35.35 50.50 34.34Q48.67 33.32 47.55 31.43Q46.43 29.54 46.43 26.91L46.43 26.91Q46.43 24.36 47.39 22.49Q48.35 20.61 50.12 19.56Q51.89 18.51 54.34 18.51L54.34 18.51Q55.74 18.51 56.96 18.99Q58.19 19.46 59.06 20.23Q59.94 21 60.32 21.91L60.32 21.91L60.15 19.18L60.15 9.27L63.86 9.27L63.86 35L60.25 35L60.18 32.16Q59.83 32.94 59.01 33.67Q58.19 34.41 57.03 34.88Q55.88 35.35 54.48 35.35ZM55.11 32.16L55.11 32.16Q56.40 32.16 57.47 31.55Q58.54 30.94 59.18 29.82Q59.83 28.70 59.83 27.16L59.83 27.16L59.83 26.91Q59.83 25.34 59.18 24.17Q58.54 22.99 57.47 22.35Q56.40 21.70 55.11 21.70L55.11 21.70Q52.76 21.70 51.59 23.20Q50.42 24.71 50.42 26.91L50.42 26.91Q50.42 29.16 51.59 30.66Q52.76 32.16 55.11 32.16ZM74.98 43.40L74.98 43.40Q73.62 43.40 72.38 43.12Q71.13 42.84 70.22 42.51Q69.31 42.17 69 42L69 42L69.84 38.50Q70.68 39.06 71.91 39.53Q73.13 40.01 74.88 40.01L74.88 40.01Q75.68 40.01 76.54 39.85Q77.40 39.69 78.17 39.18Q78.94 38.67 79.41 37.68Q79.88 36.68 79.88 35.03L79.88 35.03L79.88 32.16Q79.19 33.46 77.56 34.41Q75.93 35.35 73.86 35.35L73.86 35.35Q71.76 35.35 70.03 34.32Q68.30 33.28 67.27 31.38Q66.23 29.47 66.23 26.88L66.23 26.88Q66.23 24.39 67.20 22.52Q68.16 20.65 69.93 19.58Q71.69 18.51 74.11 18.51L74.11 18.51Q75.58 18.51 76.80 19.02Q78.03 19.53 78.85 20.25Q79.67 20.96 79.95 21.63L79.95 21.63L80.02 18.93L83.59 18.93L83.59 34.90Q83.59 38.85 81.55 41.13Q79.50 43.40 74.98 43.40ZM74.91 32.16L74.91 32.16Q76.21 32.16 77.28 31.55Q78.34 30.94 78.99 29.82Q79.64 28.70 79.64 27.16L79.64 27.16L79.64 26.91Q79.64 25.34 78.99 24.17Q78.34 22.99 77.28 22.35Q76.21 21.70 74.91 21.70L74.91 21.70Q72.57 21.70 71.40 23.20Q70.22 24.71 70.22 26.91L70.22 26.91Q70.22 29.16 71.40 30.66Q72.57 32.16 74.91 32.16ZM94.34 35.35L94.34 35.35Q91.33 35.35 89.44 34.18Q87.55 33.01 86.67 31.08Q85.80 29.16 85.80 26.98L85.80 26.98Q85.80 24.36 86.87 22.47Q87.93 20.58 89.82 19.55Q91.71 18.51 94.09 18.51L94.09 18.51Q97.91 18.51 99.66 20.63Q101.41 22.75 101.41 26.32L101.41 26.32Q101.41 27.27 101.30 28.28L101.30 28.28L89.75 28.28Q90.14 30.45 91.31 31.38Q92.48 32.30 94.44 32.30L94.44 32.30Q96.33 32.30 97.42 31.95Q98.50 31.61 99.20 31.25L99.20 31.25L100.36 33.95Q99.66 34.41 98.19 34.88Q96.72 35.35 94.34 35.35ZM89.75 25.66L89.75 25.66L97.73 25.66Q97.77 23.38 96.72 22.54Q95.67 21.70 93.99 21.70L93.99 21.70Q92.24 21.70 91.14 22.63Q90.03 23.55 89.75 25.66ZM107.88 35L103.93 35L103.93 9.27L109.60 9.27Q112.96 9.27 114.99 10.25Q117.02 11.23 117.93 12.97Q118.84 14.70 118.84 16.94L118.84 16.94Q118.84 21.03 116.46 23.26Q114.08 25.48 109.25 25.48L109.25 25.48L107.88 25.48L107.88 35ZM107.88 12.70L107.88 22.02L109.35 22.02Q111.66 22.02 112.85 21.28Q114.04 20.54 114.46 19.46Q114.88 18.38 114.88 17.36L114.88 17.36Q114.88 16.13 114.43 15.08Q113.97 14.03 112.85 13.37Q111.73 12.70 109.70 12.70L109.70 12.70L107.88 12.70ZM127.66 35.35L127.66 35.35Q125.52 35.35 123.69 34.34Q121.85 33.32 120.73 31.43Q119.61 29.54 119.61 26.91L119.61 26.91Q119.61 24.39 120.57 22.50Q121.53 20.61 123.30 19.56Q125.07 18.51 127.52 18.51L127.52 18.51Q128.99 18.51 130.20 19.02Q131.40 19.53 132.23 20.25Q133.05 20.96 133.33 21.63L133.33 21.63L133.40 18.93L137.00 18.93L137.00 35L133.43 35L133.36 32.16Q133.01 32.94 132.19 33.67Q131.37 34.41 130.21 34.88Q129.06 35.35 127.66 35.35ZM128.29 32.20L128.29 32.20Q129.58 32.20 130.65 31.59Q131.72 30.98 132.37 29.86Q133.01 28.73 133.01 27.20L133.01 27.20L133.01 26.95Q133.01 25.38 132.37 24.20Q131.72 23.03 130.65 22.38Q129.58 21.73 128.29 21.73L128.29 21.73Q125.94 21.73 124.77 23.24Q123.60 24.74 123.60 26.95L123.60 26.95Q123.60 29.19 124.77 30.70Q125.94 32.20 128.29 32.20ZM145.47 43.82L141.55 43.82L145.02 35.49L138.37 18.93L142.64 18.93L146.07 29.16L146.84 31.64L147.61 29.16L151.21 18.93L155.34 18.93L145.47 43.82Z"></path></g>
        
      </svg>